<svg width="235" height="84" viewBox="0 0 235 84" fill="none" xmlns="http://www.w3.org/2000/svg">
<path d="M16.775 72.77C25.135 72.77 31.075 68.37 31.075 60.945C31.075 52.805 24.53 50.77 18.7 49.01C12.705 47.195 11.77 45.985 11.77 44.225C11.77 42.685 13.145 41.31 15.895 41.31C19.415 41.31 21.23 43.015 22.55 45.765L29.975 41.42C27.17 35.755 22.22 32.73 15.895 32.73C9.24 32.73 2.97 37.02 2.97 44.445C2.97 51.815 8.58 54.565 14.3 56.16C20.075 57.755 22.275 58.69 22.275 61.055C22.275 62.54 21.23 64.19 17.05 64.19C12.705 64.19 10.34 62.045 8.965 58.855L1.375 63.255C3.52 68.92 8.69 72.77 16.775 72.77ZM42.5485 61.55H62.0735C62.2935 60.505 62.4035 59.405 62.4035 58.25C62.4035 49.945 56.4635 43.73 48.4335 43.73C39.7435 43.73 33.8035 50.055 33.8035 58.25C33.8035 66.445 39.6335 72.77 49.0385 72.77C54.2635 72.77 58.3335 70.845 61.0285 67.105L54.4285 63.31C53.3285 64.52 51.4035 65.4 49.1485 65.4C46.1235 65.4 43.5935 64.41 42.5485 61.55ZM42.3835 55.39C43.1535 52.585 45.2435 51.045 48.3785 51.045C50.8535 51.045 53.3285 52.2 54.2085 55.39H42.3835ZM86.1743 44.5V47.305C84.3593 45.05 81.7193 43.73 78.1443 43.73C70.3343 43.73 64.6143 50.11 64.6143 57.7C64.6143 65.29 70.3343 71.67 78.1443 71.67C81.7193 71.67 84.3593 70.35 86.1743 68.095V70.625C86.1743 74.53 83.8093 76.51 79.9593 76.51C76.3293 76.51 74.7343 74.97 73.6893 73.045L66.6493 77.115C69.1793 81.625 73.9643 83.77 79.6843 83.77C86.9993 83.77 94.2043 79.865 94.2043 70.625V44.5H86.1743ZM79.5193 64.08C75.6143 64.08 72.8643 61.495 72.8643 57.7C72.8643 53.905 75.6143 51.32 79.5193 51.32C83.4243 51.32 86.1743 53.905 86.1743 57.7C86.1743 61.495 83.4243 64.08 79.5193 64.08ZM117.197 44.5V59.515C117.197 63.42 115.107 65.18 112.082 65.18C109.442 65.18 107.297 63.585 107.297 60.175V44.5H99.0468V61.385C99.0468 68.81 103.777 72.77 109.332 72.77C112.962 72.77 115.712 71.45 117.197 69.415V72H125.447V44.5H117.197ZM138.922 49.395V44.5H130.672V72H138.922V59.57C138.922 54.125 143.762 52.75 147.172 53.3V43.95C143.707 43.95 140.022 45.71 138.922 49.395ZM167.969 44.5V59.515C167.969 63.42 165.879 65.18 162.854 65.18C160.214 65.18 158.069 63.585 158.069 60.175V44.5H149.819V61.385C149.819 68.81 154.549 72.77 160.104 72.77C163.734 72.77 166.484 71.45 167.969 69.415V72H176.219V44.5H167.969ZM201.409 44.5V47.085C199.594 44.995 196.899 43.73 193.214 43.73C186.009 43.73 180.069 50.055 180.069 58.25C180.069 66.445 186.009 72.77 193.214 72.77C196.899 72.77 199.594 71.505 201.409 69.415V72H209.659V44.5H201.409ZM194.864 64.96C191.069 64.96 188.319 62.375 188.319 58.25C188.319 54.125 191.069 51.54 194.864 51.54C198.659 51.54 201.409 54.125 201.409 58.25C201.409 62.375 198.659 64.96 194.864 64.96ZM219.562 72.77C222.422 72.77 224.787 70.405 224.787 67.545C224.787 64.685 222.422 62.32 219.562 62.32C216.702 62.32 214.337 64.685 214.337 67.545C214.337 70.405 216.702 72.77 219.562 72.77Z" fill="#12AAFF"/>
<path d="M231.334 19.8399C233.298 24.2252 232.853 29.3874 230.677 33.5827C228.893 37.0247 226.23 39.8715 224.035 43.0226C223.032 44.4653 222.019 45.9652 221.33 47.608C221.102 48.1545 220.904 48.7144 220.709 49.276C220.513 49.8359 220.346 50.4076 220.158 50.9709C219.982 51.4989 219.776 52.1211 219.142 52.1261H219.131C218.375 52.1244 218.192 51.2349 218.004 50.6346C217.544 49.165 217.063 47.7543 216.353 46.3889C215.526 44.8016 214.01 42.6795 212.965 41.2435L231.334 19.8399ZM213.534 24.7263L207.117 32.6411C208.291 35.2305 210.069 37.4552 211.771 39.6697C212.171 40.1909 212.571 40.7156 212.965 41.2435L221.043 31.2807L220.996 31.2975C218.174 32.3081 215.014 30.8082 213.878 27.9564C213.722 27.5693 213.609 27.1655 213.539 26.7525C213.437 26.0177 213.414 25.4729 213.532 24.7381L213.534 24.7263ZM208.586 17.0654L208.581 17.0722C205.425 21.2187 204.884 26.9593 206.77 31.8188L214.526 22.2528L214.432 22.1688L208.586 17.0654ZM223.447 12.5036L217.226 20.1762C217.241 20.1699 217.255 20.1642 217.27 20.1594C219.863 19.2329 222.786 20.4116 224.11 22.8935C224.395 23.4299 224.633 24.0419 224.721 24.6506C224.831 25.4006 224.859 25.9504 224.74 26.702L224.735 26.7289L230.953 19.0597C229.328 15.9853 226.657 13.6496 223.462 12.5086L223.447 12.5036ZM215.027 21.6374L222.638 12.2497L222.562 12.2295C221.436 11.9224 220.276 11.7681 219.111 11.7704C217.226 11.7888 215.364 12.2114 213.643 13.0118C211.923 13.8122 210.38 14.973 209.112 16.4214L209.086 16.4517L215.027 21.6374Z" fill="url(#paint0_linear_30_114)"/>
<path d="M217.809 0.278873L206.459 5.24784C204.984 5.91037 204 7.54461 204 9.39969V19.7793C204 30.446 209.921 40.4723 218.055 43.5199C218.755 43.7849 219.512 43.7849 220.212 43.5199C228.346 40.4723 234.267 30.4681 234.267 19.7793V9.39969C234.265 8.50099 234.029 7.62415 233.59 6.88624C233.15 6.14833 232.529 5.58447 231.808 5.26992L220.458 0.300958C219.606 -0.0965597 218.66 -0.0965596 217.809 0.278873Z" fill="url(#paint1_linear_30_114)"/>
<defs>
<linearGradient id="paint0_linear_30_114" x1="204.187" y1="11.7704" x2="217.316" y2="41.2347" gradientUnits="userSpaceOnUse">
<stop stop-color="#1246FF"/>
<stop offset="1" stop-color="#12AAFF"/>
</linearGradient>
<linearGradient id="paint1_linear_30_114" x1="202.319" y1="1.40993e-08" x2="216.182" y2="32.3088" gradientUnits="userSpaceOnUse">
<stop stop-color="#1246FF"/>
<stop offset="1" stop-color="#12AAFF"/>
</linearGradient>
</defs>
</svg>
