<svg width="31" height="53" viewBox="0 0 31 53" fill="none" xmlns="http://www.w3.org/2000/svg">
<path d="M27.3339 19.8399C29.2983 24.2252 28.8526 29.3874 26.6774 33.5827C24.8929 37.0247 22.2299 39.8715 20.0353 43.0226C19.032 44.4653 18.019 45.9652 17.3301 47.608C17.1016 48.1545 16.9039 48.7144 16.7094 49.276C16.5132 49.8359 16.3463 50.4076 16.1583 50.9709C15.9816 51.4989 15.7758 52.1211 15.142 52.1261H15.1307C14.3754 52.1244 14.1922 51.2349 14.0042 50.6346C13.5439 49.165 13.0625 47.7543 12.3526 46.3889C11.526 44.8016 10.0105 42.6795 8.96507 41.2435L27.3339 19.8399ZM9.53398 24.7263L3.11714 32.6411C4.29062 35.2305 6.06866 37.4552 7.77052 39.6697C8.17086 40.1909 8.57121 40.7156 8.96507 41.2435L17.0433 31.2807L16.9962 31.2975C14.1744 32.3081 11.0138 30.8082 9.87759 27.9564C9.72217 27.5693 9.60856 27.1655 9.53884 26.7525C9.43673 26.0177 9.41404 25.4729 9.53236 24.7381L9.53398 24.7263ZM4.58561 17.0654L4.58074 17.0722C1.425 21.2187 0.883646 26.9593 2.77028 31.8188L10.5259 22.2528L10.4319 22.1688L4.58561 17.0654ZM19.4469 12.5036L13.2262 20.1762C13.2405 20.1699 13.2551 20.1642 13.27 20.1594C15.8633 19.2329 18.7856 20.4116 20.1098 22.8935C20.3951 23.4299 20.6334 24.0419 20.7209 24.6506C20.8311 25.4006 20.8587 25.9504 20.7403 26.702L20.7355 26.7289L26.953 19.0597C25.3282 15.9853 22.6572 13.6496 19.4615 12.5086L19.4469 12.5036ZM11.0268 21.6374L18.6381 12.2497L18.562 12.2295C17.4357 11.9224 16.2758 11.7681 15.1112 11.7704C13.2256 11.7888 11.3639 12.2114 9.64323 13.0118C7.92253 13.8122 6.37995 14.973 5.11237 16.4214L5.08644 16.4517L11.0268 21.6374Z" fill="url(#paint0_linear_4_79)"/>
<path d="M13.8092 0.278873L2.45918 5.24784C0.983671 5.91037 0 7.54461 0 9.39969V19.7793C0 30.446 5.92094 40.4723 14.0551 43.5199C14.7551 43.7849 15.5117 43.7849 16.2116 43.5199C24.3458 40.4723 30.2668 30.4681 30.2668 19.7793V9.39969C30.2654 8.50099 30.0293 7.62415 29.5899 6.88624C29.1505 6.14833 28.5287 5.58447 27.8076 5.26992L16.4576 0.300958C15.6063 -0.0965597 14.6605 -0.0965596 13.8092 0.278873Z" fill="url(#paint1_linear_4_79)"/>
<defs>
<linearGradient id="paint0_linear_4_79" x1="0.186832" y1="11.7704" x2="13.3165" y2="41.2347" gradientUnits="userSpaceOnUse">
<stop stop-color="#1246FF"/>
<stop offset="1" stop-color="#12AAFF"/>
</linearGradient>
<linearGradient id="paint1_linear_4_79" x1="-1.68149" y1="1.40993e-08" x2="12.1825" y2="32.3088" gradientUnits="userSpaceOnUse">
<stop stop-color="#1246FF"/>
<stop offset="1" stop-color="#12AAFF"/>
</linearGradient>
</defs>
</svg>
