<svg width="60" height="104" viewBox="0 0 60 104" fill="none" xmlns="http://www.w3.org/2000/svg">
<path d="M54.1858 39.3301C58.0801 48.0234 57.1965 58.2567 52.8845 66.5734C49.3469 73.3967 44.0679 79.04 39.7174 85.2867C37.7285 88.1467 35.7203 91.12 34.3547 94.3767C33.9017 95.46 33.5097 96.57 33.1241 97.6833C32.7354 98.7934 32.4044 99.9267 32.0317 101.043C31.6815 102.09 31.2734 103.323 30.0171 103.333H29.9946C28.4973 103.33 28.1342 101.567 27.7615 100.377C26.849 97.4633 25.8947 94.6667 24.4874 91.96C22.8487 88.8133 19.8445 84.6067 17.7721 81.76L54.1858 39.3301ZM18.8999 49.0167L6.17931 64.7067C8.50557 69.84 12.0303 74.25 15.404 78.64C16.1977 79.6734 16.9913 80.7134 17.7721 81.76L33.786 62.01L33.6929 62.0434C28.0989 64.0467 21.8334 61.0734 19.581 55.42C19.2729 54.6527 19.0477 53.8522 18.9095 53.0334C18.7071 51.5767 18.6621 50.4967 18.8966 49.04L18.8999 49.0167ZM9.09035 33.8301L9.08071 33.8434C2.82486 42.0634 1.75169 53.4434 5.49171 63.0767L20.8663 44.1134L20.6799 43.9467L9.09035 33.8301ZM38.551 24.7867L26.2192 39.9967C26.2476 39.9841 26.2766 39.973 26.306 39.9634C31.4469 38.1267 37.2401 40.4634 39.8652 45.3834C40.4307 46.4467 40.903 47.66 41.0765 48.8667C41.295 50.3534 41.3496 51.4434 41.115 52.9334L41.1054 52.9867L53.4308 37.7834C50.2098 31.6889 44.9149 27.0586 38.5799 24.7967L38.551 24.7867ZM21.8591 42.8934L36.9477 24.2834L36.7967 24.2434C34.564 23.6345 32.2646 23.3287 29.956 23.3334C26.218 23.3697 22.5275 24.2075 19.1164 25.7942C15.7054 27.3808 12.6474 29.6821 10.1346 32.5534L10.0832 32.6134L21.8591 42.8934Z" fill="url(#paint0_linear_4_79)"/>
<path d="M27.375 0.552831L4.875 10.4032C1.95 11.7165 0 14.9562 0 18.6337V39.2099C0 60.3553 11.7375 80.2311 27.8625 86.2727C29.25 86.798 30.75 86.798 32.1375 86.2727C48.2625 80.2311 60 60.3991 60 39.2099V18.6337C59.9973 16.8521 59.5292 15.1139 58.6581 13.6511C57.7871 12.1883 56.5545 11.0705 55.125 10.4469L32.625 0.59661C30.9375 -0.191417 29.0625 -0.191417 27.375 0.552831Z" fill="url(#paint1_linear_4_79)"/>
<defs>
<linearGradient id="paint0_linear_4_79" x1="0.37035" y1="23.3333" x2="26.3981" y2="81.7425" gradientUnits="userSpaceOnUse">
<stop stop-color="#1246FF"/>
<stop offset="1" stop-color="#12AAFF"/>
</linearGradient>
<linearGradient id="paint1_linear_4_79" x1="-3.33333" y1="2.79501e-08" x2="24.1501" y2="64.0481" gradientUnits="userSpaceOnUse">
<stop stop-color="#1246FF"/>
<stop offset="1" stop-color="#12AAFF"/>
</linearGradient>
</defs>
</svg>
